<?xml version="1.0" encoding="UTF-8" standalone="no"?>
<!-- Created with Inkscape (http://www.inkscape.org/) -->

<svg
   xmlns:dc="http://purl.org/dc/elements/1.1/"
   xmlns:cc="http://creativecommons.org/ns#"
   xmlns:rdf="http://www.w3.org/1999/02/22-rdf-syntax-ns#"
   xmlns:svg="http://www.w3.org/2000/svg"
   xmlns="http://www.w3.org/2000/svg"
   xmlns:xlink="http://www.w3.org/1999/xlink"
   xmlns:sodipodi="http://sodipodi.sourceforge.net/DTD/sodipodi-0.dtd"
   xmlns:inkscape="http://www.inkscape.org/namespaces/inkscape"
   width="25.935413"
   height="213.9202"
   id="svg4819"
   version="1.1"
   inkscape:version="0.92.2 (5c3e80d, 2017-08-06)"
   sodipodi:docname="Clock2.svg">
  <defs
     id="defs4821">
    <inkscape:perspective
       sodipodi:type="inkscape:persp3d"
       inkscape:vp_x="0 : 526.18109 : 1"
       inkscape:vp_y="0 : 1000 : 0"
       inkscape:vp_z="744.09448 : 526.18109 : 1"
       inkscape:persp3d-origin="372.04724 : 350.78739 : 1"
       id="perspective4827" />
    <inkscape:perspective
       id="perspective4653"
       inkscape:persp3d-origin="0.5 : 0.33333333 : 1"
       inkscape:vp_z="1 : 0.5 : 1"
       inkscape:vp_y="0 : 1000 : 0"
       inkscape:vp_x="0 : 0.5 : 1"
       sodipodi:type="inkscape:persp3d" />
    <linearGradient
       id="linearGradient5519">
      <stop
         style="stop-color:#ffffff;stop-opacity:1;"
         offset="0"
         id="stop5521" />
      <stop
         id="stop5523"
         offset="0.1751074"
         style="stop-color:#d4a41c;stop-opacity:1;" />
      <stop
         style="stop-color:#d09c10;stop-opacity:1;"
         offset="1"
         id="stop5525" />
    </linearGradient>
    <linearGradient
       id="linearGradient3642">
      <stop
         id="stop3644"
         offset="0"
         style="stop-color:#ffff51;stop-opacity:1;" />
      <stop
         style="stop-color:#ffffff;stop-opacity:0;"
         offset="0.28852028"
         id="stop3652" />
      <stop
         style="stop-color:#ffffff;stop-opacity:0;"
         offset="0.7149291"
         id="stop3650" />
      <stop
         id="stop3646"
         offset="1"
         style="stop-color:#ffff51;stop-opacity:1;" />
    </linearGradient>
    <radialGradient
       inkscape:collect="always"
       xlink:href="#linearGradient4003"
       id="radialGradient4293"
       gradientUnits="userSpaceOnUse"
       gradientTransform="matrix(0.77555764,0.01323922,-0.01399726,0.81996401,-110.28543,366.38483)"
       cx="27.17161"
       cy="322.53177"
       fx="27.17161"
       fy="322.53177"
       r="8.4851694" />
    <linearGradient
       id="linearGradient4003">
      <stop
         style="stop-color:#c09883;stop-opacity:1;"
         offset="0"
         id="stop4005" />
      <stop
         style="stop-color:#815842;stop-opacity:1;"
         offset="1"
         id="stop4007" />
    </linearGradient>
    <linearGradient
       id="linearGradient4039">
      <stop
         style="stop-color:#ffffff;stop-opacity:1;"
         offset="0"
         id="stop4041" />
      <stop
         style="stop-color:#a1ffff;stop-opacity:0;"
         offset="1"
         id="stop4043" />
    </linearGradient>
  </defs>
  <sodipodi:namedview
     id="base"
     pagecolor="#ffffff"
     bordercolor="#666666"
     borderopacity="1.0"
     inkscape:pageopacity="0.0"
     inkscape:pageshadow="2"
     inkscape:zoom="3.5638182"
     inkscape:cx="-37.895352"
     inkscape:cy="106.67076"
     inkscape:document-units="px"
     inkscape:current-layer="layer1"
     showgrid="false"
     inkscape:window-width="1680"
     inkscape:window-height="987"
     inkscape:window-x="-8"
     inkscape:window-y="-8"
     inkscape:window-maximized="1"
     fit-margin-top="0"
     fit-margin-left="0"
     fit-margin-right="0"
     fit-margin-bottom="0" />
  <metadata
     id="metadata4824">
    <rdf:RDF>
      <cc:Work
         rdf:about="">
        <dc:format>image/svg+xml</dc:format>
        <dc:type
           rdf:resource="http://purl.org/dc/dcmitype/StillImage" />
        <dc:title></dc:title>
      </cc:Work>
    </rdf:RDF>
  </metadata>
  <g
     inkscape:label="Ebene 1"
     inkscape:groupmode="layer"
     id="layer1"
     transform="translate(-340.53019,-330.44674)">
    <path
       inkscape:connector-curvature="0"
       inkscape:transform-center-x="-0.18869312"
       inkscape:transform-center-y="-93.163059"
       id="path4019"
       d="m 363.92229,331.48341 c -1.22631,-0.0652 -2.24592,0.89586 -2.31111,2.12215 l -1.66899,31.38879 c 0,0 -1.20701,18.79475 -3.161,30.42079 -0.76324,4.54101 -3.60838,13.32525 -3.60838,13.32525 l 4.79199,-0.4 -0.10109,1.02361 c 0,0 -1.8293,15.2366 -3.65038,22.91125 -1.65949,6.9935 -6.09966,13.38644 -6.3322,20.57037 -0.11898,3.67292 2.64034,11.03826 2.64034,11.03826 l -2.81424,1.90834 1.36599,2.458 -3.52424,2.94632 3.08672,2.64305 c 0,0 -2.42266,1.84249 -2.37654,5.1121 0.0311,2.20951 3.4609,5.28215 3.4609,5.28215 0,0 -1.24086,2.9818 -2.60727,5.05305 -0.91003,1.37941 -3.40962,4.30884 -3.40962,4.30884 l 2.96217,1.4671 -0.49912,1.47017 1.39423,0.16766 0.70684,0.78571 c 0,0 -4.04659,2.09859 -3.71867,8.36154 0.26699,5.01694 5.35886,9.17162 5.35886,9.17162 l -4.71067,-0.25048 -0.19096,3.5913 3.87115,0.20583 -1.87899,1.91128 c -3.66217,2.07396 -6.20945,5.947 -6.44949,10.46141 -0.37405,7.0348 5.02094,13.03571 12.05576,13.40974 7.03481,0.37406 13.03571,-5.02091 13.40974,-12.05576 0.23884,-4.49195 -1.86781,-8.5826 -5.25963,-11.03722 l -1.80314,-2.15386 3.87116,0.20585 0.19094,-3.59129 -4.10434,-0.21823 c 0,0 3.15514,-2.14911 4.30619,-5.3369 0.77286,-2.14045 -0.87883,-4.58363 -0.87883,-4.58363 0,0 1.74501,-1.71997 1.86801,-4.344 0.10425,-2.21493 -2.93349,-4.64609 -2.93349,-4.64609 l 1.51082,-2.0244 -1.42056,-1.43192 1.90669,-3.31298 -1.54316,-1.76582 c 0,0 0.99746,-4.19736 0.80369,-6.31825 -0.12968,-1.41922 -1.55905,-4.10529 -1.55905,-4.10529 l 3.84224,-5.40833 c 0,0 -10.71099,-5.4962 -10.57668,-15.7165 0.15399,-11.7209 9.52471,-13.75901 9.52471,-13.75901 l -2.08697,-3.85272 1.21406,-2.60146 -2.06608,-1.60656 c 0,0 1.3129,-8.08394 1.53591,-12.17258 0.23319,-4.25419 -0.20916,-12.77989 -0.20916,-12.77989 l -0.0803,-1.12677 4.39855,0.8419 c 0,0 -1.94426,-9.0389 -2.2216,-13.63523 -0.71017,-11.76772 0.12936,-30.58199 0.12936,-30.58199 l 1.66898,-31.3888 c 0.0652,-1.2263 -0.89339,-2.29254 -2.11961,-2.35778 z m -10.42911,143.36282 c 2.62092,0.27496 5.22774,3.42484 5.14939,6.07354 -0.17279,5.84237 -3.72529,9.26616 -9.33824,9.37235 0,0 2.13457,-5.63763 3.53206,-8.37148 0.28057,-0.54895 -5.15429,-3.42841 -1.86475,-6.27304 0.76997,-0.66589 1.64791,-0.89299 2.52153,-0.80136 z m 1.65919,23.33389 c 2.1406,0.14727 3.82151,1.13863 3.82151,1.13863 0,0 -3.38461,1.48181 -3.50735,3.5085 -0.0497,0.80255 1.29505,2.0333 1.29505,2.0333 0,0 -1.4518,0.97149 -1.49592,1.74454 -0.12874,2.28943 3.04905,4.23129 3.04905,4.23129 0,0 -2.53001,1.43584 -5.32243,0.69923 -2.56526,-0.67669 -5.41891,-3.41848 -5.2645,-6.54738 0.16992,-3.45002 2.82855,-5.97424 5.21514,-6.5982 0.77014,-0.20132 1.49591,-0.25903 2.20945,-0.20991 z"
       style="opacity:0.28723402;fill:#3b1700;fill-opacity:1;stroke:none" />
    <path
       inkscape:connector-curvature="0"
       style="fill:#cc9004;fill-opacity:1;stroke:none"
       d="m 355.03626,330.44682 c -1.228,-0.0104 -2.20366,0.99526 -2.21403,2.22326 l -0.26562,31.432 c 0,0 -0.3665,18.8299 -1.79937,30.53161 -0.55968,4.57056 -3.00971,13.4731 -3.00971,13.4731 l 4.76934,-0.61362 -0.0553,1.02712 c 0,0 -1.14706,15.30309 -2.62361,23.0514 -1.34552,7.06063 -5.49579,13.64548 -5.40728,20.83263 0.0451,3.67457 3.13064,10.90934 3.13064,10.90934 l -2.72623,2.0321 1.4744,2.39455 -3.38915,3.10077 3.20168,2.50256 c 0,0 -2.33798,1.94885 -2.14589,5.21312 0.12974,2.20593 3.69333,5.12235 3.69333,5.12235 0,0 -1.10648,3.03424 -2.37903,5.16444 -0.84751,1.41867 -3.21379,4.45678 -3.21379,4.45678 l 3.02473,1.33337 -0.43299,1.49099 1.40035,0.10524 0.741,0.75357 c 0,0 -3.94884,2.2772 -3.34156,8.51926 0.49075,5.00001 5.76308,8.92317 5.76308,8.92317 l -4.71716,-0.0399 -0.0304,3.59624 3.87648,0.0328 -1.79176,1.99328 c -3.5659,2.23543 -5.93769,6.21835 -5.9759,10.73898 -0.0595,7.04449 5.59805,12.79849 12.64255,12.85802 7.04449,0.0595 12.79849,-5.59805 12.85802,-12.64253 0.038,-4.49814 -2.2492,-8.49064 -5.74725,-10.79134 l -1.89753,-2.07119 3.87649,0.0328 0.0304,-3.59623 -4.11,-0.0347 c 0,0 3.05603,-2.28784 4.06357,-5.52386 0.67651,-2.17283 -1.08264,-4.5398 -1.08264,-4.5398 0,0 1.66643,-1.79622 1.67216,-4.42309 0.005,-2.21739 -3.13803,-4.51046 -3.13803,-4.51046 l 1.41889,-2.08986 -1.48308,-1.36704 1.75686,-3.39483 -1.62044,-1.69517 c 0,0 0.80903,-4.23772 0.52074,-6.34784 -0.19293,-1.41202 -1.74081,-4.03158 -1.74081,-4.03158 l 3.59688,-5.57452 c 0,0 -10.94575,-5.01239 -11.26798,-15.22849 -0.36956,-11.7161 8.90079,-14.17063 8.90079,-14.17063 l -2.25694,-3.75569 1.09668,-2.65307 -2.13577,-1.51269 c 0,0 0.95061,-8.13451 0.9908,-12.22903 0.043,-4.26035 -0.77965,-12.7578 -0.77965,-12.7578 l -0.13058,-1.12206 4.43177,0.64464 c 0,0 -2.34596,-8.94306 -2.82827,-13.52241 -1.23497,-11.72428 -1.23646,-30.55727 -1.23646,-30.55727 l 0.26561,-31.43201 c 0.0104,-1.22799 -0.99488,-2.25037 -2.22282,-2.26075 z m -4.01666,143.68554 c 2.63059,0.15764 5.37547,3.18797 5.41548,5.83752 0.0883,5.84426 -3.30779,9.42327 -8.91039,9.78002 0,0 1.88068,-5.72734 3.15469,-8.52085 0.25581,-0.56093 -5.30225,-3.19483 -2.14302,-6.18352 0.73951,-0.69956 1.60639,-0.96569 2.48323,-0.91316 z m 2.69954,23.23652 c 2.14505,0.0515 3.86853,0.96684 3.86853,0.96684 0,0 -3.31506,1.63146 -3.34717,3.66163 -0.0138,0.80396 1.38456,1.97342 1.38456,1.97342 0,0 -1.40697,1.03536 -1.41653,1.80962 -0.0264,2.29289 3.23497,4.09091 3.23497,4.09091 0,0 -2.46336,1.54738 -5.2859,0.93619 -2.5929,-0.56144 -5.56615,-3.17307 -5.55162,-6.30574 0.0157,-3.45417 2.55894,-6.09459 4.91527,-6.8245 0.76039,-0.23552 1.48287,-0.32558 2.19789,-0.30837 z"
       id="path2833-9"
       inkscape:transform-center-y="-93.29863"
       inkscape:transform-center-x="0.0044923734" />
    <circle
       r="1.8867756"
       cy="379.4393"
       cx="352.63193"
       inkscape:transform-center-y="-152.16691"
       transform="rotate(-0.13758488)"
       id="path5646"
       style="fill:#cc9004;fill-opacity:1;stroke:none;stroke-width:1.79910719"
       inkscape:transform-center-x="0.36556086" />
    <circle
       r="8.4851694"
       cy="631.20905"
       cx="-93.726845"
       style="fill:url(#radialGradient4293);fill-opacity:1;fill-rule:nonzero;stroke:none"
       id="path3229"
       transform="rotate(-42.137599)" />
  </g>
</svg>
